<svg version="1.1" id="Layer_1" xmlns="http://www.w3.org/2000/svg" x="0" y="0" viewBox="0 0 391.4 358.5" style="enable-background:new 0 0 391.4 358.5" xml:space="preserve"><style>.st0{fill:#152f4e}.st1{fill:#95c122}.st2{fill:#95c11f}</style><path class="st0" d="M125.9 196.3v.1l106.7-92 115.5 98.9 9.3-9.3L232.6 88.4 107.8 194.2l9.4 9.5z"/><path class="st1" d="M111.7 89.9c14.1-15.6 31.3-28.3 50.7-37l-50.7 37z"/><path class="st1" d="M237.5 46.8c-.1 0-.1 0 0 0H236.3c-81.5 1.3-147.4 60-149.8 137.3l145.8-126 150.8 129.6c-2.3-77.4-66.4-139.5-145.6-140.9z"/><path class="st2" d="M87.8 194.6c4.5-.2 17 2.1 23.5 32.2 1.7 8.3 13 48.6 60.7 65.2-5.6-5.4-43.8-34.6-35.9-53.5.4-1 1.7-1.2 2.5-.5 7.7 7.1 26.7 26.2 66.6 38.4 3.6 1.1 11.8 3.1 22 7.5-14.9 8.3-31.8 21.3-45.5 42.1l-.9 1.3c-54.1-20.6-92.8-71.3-94.6-131 0-.9.7-1.6 1.6-1.7z"/><path class="st2" d="M381.6 194.6c-4.5-.2-17 2.1-23.5 32.2-1.7 8.3-13 48.6-60.7 65.2 5.6-5.4 43.8-34.6 35.9-53.5-.4-1-1.7-1.2-2.5-.5-7.7 7.1-26.7 26.2-66.6 38.4-9.4 2.9-55.4 17.7-79.7 58.6-61.9-19.6-107.4-80.3-104-149.3C84.4 105 149.9 40.5 231.3 40.5c0 0 1.1 0 2.8.1 9.2-5.4 13.6-9.8 14-10-26.4-23.1-66.4-28-95.7-17.3-59.1 21.5-56 81.4-55.6 81.1C119 45.8 188.8 29 189.1 29c-46.9 17.2-77.5 50.4-93.8 77.9-9.1 15.1-15.1 30.8-19 44.9-.1-6.1-.5-10.4-.5-10.4C72.8 97 46.9 75 46.9 74.6c25.6 12.5 31.9 49.5 32.2 49.1C86.8 61.9 7.4 51.2 7.4 51.2S14 65.8 24.2 82.3c10.3 16.5 30.8 33.3 34.1 37.4 11.8 10.7 14.4 32.2 14.1 50.9-1.9 15-1 28.4-.7 33.3 3.3 48.7 30.4 85.9 43.8 99.5 27.6 28.4 66 46.1 108.5 46.1h8.5c90.3 0 150.6-72.7 150.6-153.3 0-.8-.6-1.5-1.5-1.6z"/><path class="st0" d="M232.6 124.1 126 214.2v27.3c.5-6.4 3.2-9.4 6.2-10.6l.9-.3h.1c.3-.1.5-.1.8-.2h.2c.2 0 .5-.1.7-.1h1.1c.5 0 1 .1 1.5.2.1 0 .2 0 .3.1.4.1.7.2 1.1.3.2.1.4.1.6.2.9.3 1.7.8 2.3 1.1.3.2.5.3.8.5.5.3.8.6.8.6l1.2 1.1c7.9 7.3 26.3 24.5 62.8 35.8.7.2 1.5.4 2.4.7.9.3 1.9.5 3 .9v-58.5h44.3v58.5c1.1-.3 2.1-.6 2.9-.9.9-.3 1.8-.5 2.4-.7 36.5-11.2 54.9-28.4 62.8-35.8l1.2-1.1c2-1.9 4.8-2.6 7.6-2.1 2.7.6 5 2.4 6 4.9.7 1.8 1.2 3.6 1.4 5.5v-26.4l-108.8-91.1zm-.7 76.2h-19.4v-19.4h19.4v19.4zm0-24.5h-19.4v-19.4h19.4v19.4zm25 24.5h-19.4v-19.4h19.4v19.4zm0-24.5h-19.4v-19.4h19.4v19.4z"/></svg>